<?xml version="1.0" encoding="UTF-8" ?>
<svg version="1.1" width="70" height="92" xmlns="http://www.w3.org/2000/svg" shape-rendering="crispEdges">
<rect x="8" y="0" width="4" height="26" fill="#461938" />
<rect x="58" y="0" width="4" height="26" fill="#461938" />
<rect x="12" y="2" width="2" height="22" fill="#461938" />
<rect x="56" y="2" width="2" height="22" fill="#461938" />
<rect x="6" y="4" width="2" height="20" fill="#461938" />
<rect x="14" y="4" width="2" height="18" fill="#461938" />
<rect x="30" y="4" width="2" height="2" fill="#461938" />
<rect x="38" y="4" width="2" height="2" fill="#461938" />
<rect x="54" y="4" width="2" height="18" fill="#461938" />
<rect x="62" y="4" width="2" height="20" fill="#461938" />
<rect x="16" y="6" width="2" height="14" fill="#461938" />
<rect x="52" y="6" width="2" height="14" fill="#461938" />
<rect x="18" y="10" width="2" height="8" fill="#461938" />
<rect x="24" y="10" width="2" height="2" fill="#461938" />
<rect x="30" y="10" width="2" height="6" fill="#461938" />
<rect x="38" y="10" width="2" height="6" fill="#461938" />
<rect x="44" y="10" width="2" height="2" fill="#461938" />
<rect x="50" y="10" width="2" height="8" fill="#461938" />
<rect x="20" y="14" width="2" height="4" fill="#461938" />
<rect x="26" y="14" width="2" height="4" fill="#461938" />
<rect x="42" y="14" width="2" height="4" fill="#461938" />
<rect x="48" y="14" width="2" height="4" fill="#461938" />
<rect x="18" y="20" width="34" height="8" fill="#461938" />
<rect x="16" y="22" width="2" height="24" fill="#461938" />
<rect x="52" y="22" width="2" height="24" fill="#461938" />
<rect x="14" y="24" width="2" height="22" fill="#461938" />
<rect x="54" y="24" width="2" height="22" fill="#461938" />
<rect x="8" y="26" width="2" height="2" fill="#461938" />
<rect x="12" y="26" width="2" height="16" fill="#461938" />
<rect x="56" y="26" width="2" height="16" fill="#461938" />
<rect x="60" y="26" width="2" height="2" fill="#461938" />
<rect x="18" y="28" width="2" height="2" fill="#461938" />
<rect x="26" y="28" width="18" height="2" fill="#461938" />
<rect x="50" y="28" width="2" height="2" fill="#461938" />
<rect x="20" y="30" width="6" height="4" fill="#461938" />
<rect x="28" y="30" width="14" height="6" fill="#461938" />
<rect x="44" y="30" width="6" height="4" fill="#461938" />
<rect x="18" y="34" width="2" height="14" fill="#461938" />
<rect x="26" y="34" width="2" height="8" fill="#461938" />
<rect x="42" y="34" width="2" height="8" fill="#461938" />
<rect x="50" y="34" width="2" height="14" fill="#461938" />
<rect x="20" y="36" width="6" height="12" fill="#461938" />
<rect x="28" y="36" width="6" height="8" fill="#461938" />
<rect x="36" y="36" width="6" height="8" fill="#461938" />
<rect x="44" y="36" width="6" height="12" fill="#461938" />
<rect x="34" y="40" width="2" height="2" fill="#461938" />
<rect x="4" y="42" width="6" height="2" fill="#461938" />
<rect x="60" y="42" width="6" height="2" fill="#461938" />
<rect x="0" y="44" width="2" height="2" fill="#461938" />
<rect x="26" y="44" width="2" height="4" fill="#461938" />
<rect x="34" y="44" width="2" height="4" fill="#461938" />
<rect x="42" y="44" width="2" height="4" fill="#461938" />
<rect x="68" y="44" width="2" height="2" fill="#461938" />
<rect x="8" y="46" width="4" height="2" fill="#461938" />
<rect x="28" y="46" width="6" height="2" fill="#461938" />
<rect x="36" y="46" width="6" height="2" fill="#461938" />
<rect x="58" y="46" width="4" height="2" fill="#461938" />
<rect x="4" y="48" width="2" height="2" fill="#461938" />
<rect x="64" y="48" width="2" height="2" fill="#461938" />
<rect x="26" y="50" width="18" height="36" fill="#461938" />
<rect x="56" y="52" width="6" height="10" fill="#461938" />
<rect x="54" y="54" width="2" height="18" fill="#461938" />
<rect x="62" y="54" width="2" height="14" fill="#461938" />
<rect x="24" y="56" width="2" height="30" fill="#461938" />
<rect x="44" y="56" width="2" height="30" fill="#461938" />
<rect x="52" y="56" width="2" height="12" fill="#461938" />
<rect x="64" y="56" width="2" height="12" fill="#461938" />
<rect x="66" y="58" width="2" height="8" fill="#461938" />
<rect x="22" y="60" width="2" height="28" fill="#461938" />
<rect x="46" y="60" width="2" height="28" fill="#461938" />
<rect x="50" y="60" width="2" height="4" fill="#461938" />
<rect x="56" y="62" width="2" height="6" fill="#461938" />
<rect x="60" y="62" width="2" height="4" fill="#461938" />
<rect x="20" y="64" width="2" height="26" fill="#461938" />
<rect x="48" y="64" width="2" height="26" fill="#461938" />
<rect x="18" y="68" width="2" height="22" fill="#461938" />
<rect x="50" y="68" width="2" height="22" fill="#461938" />
<rect x="16" y="72" width="2" height="18" fill="#461938" />
<rect x="52" y="72" width="2" height="18" fill="#461938" />
<rect x="14" y="76" width="2" height="14" fill="#461938" />
<rect x="54" y="76" width="2" height="14" fill="#461938" />
<rect x="12" y="82" width="2" height="6" fill="#461938" />
<rect x="56" y="82" width="2" height="6" fill="#461938" />
<rect x="32" y="86" width="6" height="2" fill="#461938" />
<rect x="24" y="88" width="8" height="4" fill="#461938" />
<rect x="34" y="88" width="2" height="2" fill="#461938" />
<rect x="38" y="88" width="8" height="4" fill="#461938" />
</svg>